<svg width="200" height="200" viewBox="0 0 200 200" fill="none" xmlns="http://www.w3.org/2000/svg">
    <rect width="200" height="200" rx="100" fill="white"/>
    <path d="M91.4042 93.5833C91.0322 92.1414 90.2806 90.8254 89.2276 89.7724C88.1746 88.7194 86.8587 87.9678 85.4167 87.5958L59.8542 81.0041C59.4181 80.8804 59.0342 80.6177 58.7609 80.256C58.4876 79.8943 58.3397 79.4533 58.3397 79C58.3397 78.5466 58.4876 78.1057 58.7609 77.744C59.0342 77.3823 59.4181 77.1196 59.8542 76.9958L85.4167 70.4C86.8582 70.0283 88.1737 69.2774 89.2267 68.2251C90.2797 67.1729 91.0316 65.8578 91.4042 64.4166L97.9959 38.8541C98.1184 38.4163 98.3808 38.0306 98.743 37.7558C99.1053 37.481 99.5475 37.3323 100.002 37.3323C100.457 37.3323 100.899 37.481 101.261 37.7558C101.623 38.0306 101.886 38.4163 102.008 38.8541L108.596 64.4166C108.968 65.8586 109.719 67.1746 110.772 68.2276C111.825 69.2806 113.141 70.0322 114.583 70.4042L140.146 76.9916C140.585 77.1129 140.973 77.375 141.249 77.7378C141.526 78.1006 141.675 78.544 141.675 79C141.675 79.456 141.526 79.8994 141.249 80.2622C140.973 80.6249 140.585 80.8871 140.146 81.0083L114.583 87.5958C113.141 87.9678 111.825 88.7194 110.772 89.7724C109.719 90.8254 108.968 92.1414 108.596 93.5833L102.004 119.146C101.882 119.584 101.619 119.969 101.257 120.244C100.895 120.519 100.453 120.668 99.998 120.668C99.5433 120.668 99.1011 120.519 98.7389 120.244C98.3766 119.969 98.1142 119.584 97.9917 119.146L91.4042 93.5833Z"
          fill="#2B75FF" fill-opacity="0.2" stroke="#2B75FF" stroke-width="5" stroke-linecap="round"
          stroke-linejoin="round"/>
    <path d="M133.333 41.5V58.1667" stroke="#2B75FF" stroke-width="5" stroke-linecap="round" stroke-linejoin="round"/>
    <path d="M141.667 49.8333H125" stroke="#2B75FF" stroke-width="5" stroke-linecap="round" stroke-linejoin="round"/>
    <path d="M66.6666 99.8334V108.167" stroke="#2B75FF" stroke-width="5" stroke-linecap="round"
          stroke-linejoin="round"/>
    <path d="M70.8333 104H62.5" stroke="#2B75FF" stroke-width="5" stroke-linecap="round" stroke-linejoin="round"/>
    <path d="M48.72 144.96C49.0533 144.96 49.34 145.073 49.58 145.3C49.8333 145.513 49.96 145.787 49.96 146.12C49.96 146.293 49.92 146.473 49.84 146.66L44.9 158.22C44.78 158.487 44.6067 158.687 44.38 158.82C44.1667 158.94 43.9467 159 43.72 159C43.5067 158.987 43.3 158.92 43.1 158.8C42.9 158.667 42.7467 158.48 42.64 158.24L37.7 146.64C37.66 146.56 37.6333 146.48 37.62 146.4C37.6067 146.307 37.6 146.22 37.6 146.14C37.6 145.753 37.74 145.46 38.02 145.26C38.3 145.047 38.5667 144.94 38.82 144.94C39.3267 144.94 39.6933 145.2 39.92 145.72L44.3 156.02L43.6 156.04L47.62 145.72C47.8467 145.213 48.2133 144.96 48.72 144.96ZM54.1147 157.78C54.1147 158.127 54.0014 158.42 53.7747 158.66C53.548 158.887 53.2614 159 52.9147 159C52.568 159 52.2814 158.887 52.0547 158.66C51.828 158.42 51.7147 158.127 51.7147 157.78V149.52C51.7147 149.173 51.828 148.887 52.0547 148.66C52.2814 148.42 52.568 148.3 52.9147 148.3C53.2614 148.3 53.548 148.42 53.7747 148.66C54.0014 148.887 54.1147 149.173 54.1147 149.52V157.78ZM52.8947 147C52.4414 147 52.1214 146.927 51.9347 146.78C51.748 146.633 51.6547 146.373 51.6547 146V145.62C51.6547 145.233 51.7547 144.973 51.9547 144.84C52.168 144.693 52.488 144.62 52.9147 144.62C53.3814 144.62 53.708 144.693 53.8947 144.84C54.0814 144.987 54.1747 145.247 54.1747 145.62V146C54.1747 146.387 54.0747 146.653 53.8747 146.8C53.6747 146.933 53.348 147 52.8947 147ZM55.9613 157.34C55.8279 157.153 55.7679 156.913 55.7813 156.62C55.7946 156.327 55.9679 156.073 56.3013 155.86C56.5146 155.727 56.7413 155.673 56.9813 155.7C57.2213 155.713 57.4546 155.833 57.6813 156.06C58.0679 156.447 58.4746 156.747 58.9013 156.96C59.3279 157.173 59.8613 157.28 60.5013 157.28C60.7013 157.267 60.9213 157.24 61.1612 157.2C61.4013 157.147 61.6079 157.04 61.7813 156.88C61.9679 156.707 62.0613 156.447 62.0613 156.1C62.0613 155.807 61.9613 155.573 61.7613 155.4C61.5613 155.227 61.2946 155.08 60.9613 154.96C60.6413 154.84 60.2813 154.727 59.8813 154.62C59.4679 154.5 59.0413 154.367 58.6013 154.22C58.1746 154.073 57.7813 153.887 57.4213 153.66C57.0613 153.42 56.7679 153.107 56.5413 152.72C56.3146 152.333 56.2013 151.847 56.2013 151.26C56.2013 150.593 56.3879 150.027 56.7613 149.56C57.1346 149.093 57.6146 148.733 58.2013 148.48C58.8013 148.227 59.4279 148.1 60.0813 148.1C60.4946 148.1 60.9279 148.153 61.3813 148.26C61.8346 148.353 62.2679 148.513 62.6813 148.74C63.0946 148.953 63.4413 149.24 63.7213 149.6C63.8679 149.8 63.9546 150.04 63.9813 150.32C64.0079 150.6 63.8813 150.853 63.6013 151.08C63.4013 151.24 63.1679 151.313 62.9013 151.3C62.6346 151.273 62.4146 151.18 62.2413 151.02C62.0146 150.727 61.7079 150.493 61.3213 150.32C60.9479 150.147 60.5146 150.06 60.0213 150.06C59.8213 150.06 59.6013 150.087 59.3613 150.14C59.1346 150.18 58.9346 150.28 58.7613 150.44C58.5879 150.587 58.5013 150.827 58.5013 151.16C58.5013 151.467 58.6013 151.713 58.8013 151.9C59.0013 152.073 59.2679 152.22 59.6013 152.34C59.9479 152.447 60.3146 152.553 60.7013 152.66C61.1013 152.767 61.5079 152.893 61.9213 153.04C62.3346 153.187 62.7146 153.38 63.0613 153.62C63.4079 153.86 63.6879 154.173 63.9013 154.56C64.1146 154.933 64.2213 155.413 64.2213 156C64.2213 156.68 64.0213 157.26 63.6213 157.74C63.2213 158.22 62.7213 158.587 62.1213 158.84C61.5213 159.08 60.9079 159.2 60.2812 159.2C59.4946 159.2 58.7079 159.067 57.9212 158.8C57.1346 158.52 56.4813 158.033 55.9613 157.34ZM70.9897 148.1C71.7497 148.1 72.4097 148.18 72.9697 148.34C73.543 148.5 73.983 148.727 74.2897 149.02C74.6097 149.3 74.7697 149.64 74.7697 150.04C74.7697 150.307 74.6897 150.56 74.5297 150.8C74.3697 151.027 74.1364 151.14 73.8297 151.14C73.6164 151.14 73.4364 151.113 73.2897 151.06C73.1564 150.993 73.0364 150.913 72.9297 150.82C72.823 150.727 72.6964 150.64 72.5497 150.56C72.4164 150.48 72.2097 150.42 71.9297 150.38C71.663 150.327 71.463 150.3 71.3297 150.3C70.6497 150.3 70.0697 150.447 69.5897 150.74C69.123 151.033 68.763 151.433 68.5097 151.94C68.2564 152.433 68.1297 153.007 68.1297 153.66C68.1297 154.3 68.2564 154.873 68.5097 155.38C68.7764 155.873 69.1364 156.267 69.5897 156.56C70.0564 156.853 70.5897 157 71.1897 157C71.523 157 71.8097 156.98 72.0497 156.94C72.2897 156.9 72.4897 156.84 72.6497 156.76C72.8364 156.653 73.003 156.54 73.1497 156.42C73.2964 156.3 73.5164 156.24 73.8097 156.24C74.1564 156.24 74.423 156.353 74.6097 156.58C74.7964 156.793 74.8897 157.06 74.8897 157.38C74.8897 157.713 74.703 158.02 74.3297 158.3C73.9564 158.567 73.463 158.787 72.8497 158.96C72.2497 159.12 71.5964 159.2 70.8897 159.2C69.8364 159.2 68.923 158.96 68.1497 158.48C67.3764 157.987 66.7764 157.32 66.3497 156.48C65.9364 155.64 65.7297 154.7 65.7297 153.66C65.7297 152.567 65.9497 151.607 66.3897 150.78C66.843 149.94 67.463 149.287 68.2497 148.82C69.0497 148.34 69.963 148.1 70.9897 148.1ZM85.3803 148.1C85.727 148.1 86.0136 148.213 86.2403 148.44C86.467 148.667 86.5803 148.96 86.5803 149.32V157.78C86.5803 158.127 86.467 158.42 86.2403 158.66C86.0136 158.887 85.727 159 85.3803 159C85.0336 159 84.747 158.887 84.5203 158.66C84.2936 158.42 84.1803 158.127 84.1803 157.78V156.8L84.6203 156.98C84.6203 157.153 84.527 157.367 84.3403 157.62C84.1536 157.86 83.9003 158.1 83.5803 158.34C83.2603 158.58 82.8803 158.787 82.4403 158.96C82.0136 159.12 81.547 159.2 81.0403 159.2C80.1203 159.2 79.287 158.967 78.5403 158.5C77.7936 158.02 77.2003 157.367 76.7603 156.54C76.3336 155.7 76.1203 154.74 76.1203 153.66C76.1203 152.567 76.3336 151.607 76.7603 150.78C77.2003 149.94 77.787 149.287 78.5203 148.82C79.2536 148.34 80.067 148.1 80.9603 148.1C81.5336 148.1 82.0603 148.187 82.5403 148.36C83.0203 148.533 83.4336 148.753 83.7803 149.02C84.1403 149.287 84.4136 149.56 84.6003 149.84C84.8003 150.107 84.9003 150.333 84.9003 150.52L84.1803 150.78V149.32C84.1803 148.973 84.2936 148.687 84.5203 148.46C84.747 148.22 85.0336 148.1 85.3803 148.1ZM81.3403 157C81.927 157 82.4403 156.853 82.8803 156.56C83.3203 156.267 83.6603 155.867 83.9003 155.36C84.1536 154.853 84.2803 154.287 84.2803 153.66C84.2803 153.02 84.1536 152.447 83.9003 151.94C83.6603 151.433 83.3203 151.033 82.8803 150.74C82.4403 150.447 81.927 150.3 81.3403 150.3C80.767 150.3 80.2603 150.447 79.8203 150.74C79.3803 151.033 79.0336 151.433 78.7803 151.94C78.5403 152.447 78.4203 153.02 78.4203 153.66C78.4203 154.287 78.5403 154.853 78.7803 155.36C79.0336 155.867 79.3803 156.267 79.8203 156.56C80.2603 156.853 80.767 157 81.3403 157ZM104.784 145.68C105.131 145.853 105.331 146.127 105.384 146.5C105.451 146.873 105.358 147.213 105.104 147.52C104.931 147.76 104.704 147.893 104.424 147.92C104.158 147.947 103.884 147.893 103.604 147.76C103.284 147.613 102.944 147.5 102.584 147.42C102.238 147.34 101.871 147.3 101.484 147.3C100.764 147.3 100.118 147.413 99.5444 147.64C98.9844 147.867 98.5044 148.193 98.1044 148.62C97.7044 149.033 97.3977 149.527 97.1844 150.1C96.9844 150.673 96.8844 151.307 96.8844 152C96.8844 152.813 96.9977 153.52 97.2244 154.12C97.4644 154.72 97.791 155.22 98.2044 155.62C98.6177 156.02 99.1044 156.32 99.6644 156.52C100.224 156.707 100.831 156.8 101.484 156.8C101.844 156.8 102.204 156.767 102.564 156.7C102.924 156.633 103.271 156.513 103.604 156.34C103.884 156.207 104.158 156.16 104.424 156.2C104.704 156.24 104.938 156.38 105.124 156.62C105.391 156.953 105.484 157.3 105.404 157.66C105.338 158.007 105.138 158.26 104.804 158.42C104.458 158.593 104.098 158.74 103.724 158.86C103.364 158.967 102.998 159.047 102.624 159.1C102.251 159.167 101.871 159.2 101.484 159.2C100.524 159.2 99.611 159.047 98.7444 158.74C97.891 158.433 97.1244 157.98 96.4444 157.38C95.7777 156.78 95.251 156.033 94.8644 155.14C94.4777 154.233 94.2844 153.187 94.2844 152C94.2844 150.973 94.4577 150.027 94.8044 149.16C95.1644 148.293 95.6644 147.547 96.3044 146.92C96.9577 146.28 97.7244 145.787 98.6044 145.44C99.4844 145.08 100.444 144.9 101.484 144.9C102.071 144.9 102.644 144.967 103.204 145.1C103.764 145.233 104.291 145.427 104.784 145.68ZM117.703 153.66C117.703 154.753 117.457 155.72 116.963 156.56C116.483 157.387 115.83 158.033 115.003 158.5C114.19 158.967 113.277 159.2 112.263 159.2C111.25 159.2 110.33 158.967 109.503 158.5C108.69 158.033 108.037 157.387 107.543 156.56C107.063 155.72 106.823 154.753 106.823 153.66C106.823 152.567 107.063 151.607 107.543 150.78C108.037 149.94 108.69 149.287 109.503 148.82C110.33 148.34 111.25 148.1 112.263 148.1C113.277 148.1 114.19 148.34 115.003 148.82C115.83 149.287 116.483 149.94 116.963 150.78C117.457 151.607 117.703 152.567 117.703 153.66ZM115.303 153.66C115.303 152.98 115.163 152.393 114.883 151.9C114.617 151.393 114.25 151 113.783 150.72C113.33 150.44 112.823 150.3 112.263 150.3C111.703 150.3 111.19 150.44 110.723 150.72C110.27 151 109.903 151.393 109.623 151.9C109.357 152.393 109.223 152.98 109.223 153.66C109.223 154.327 109.357 154.913 109.623 155.42C109.903 155.913 110.27 156.3 110.723 156.58C111.19 156.86 111.703 157 112.263 157C112.823 157 113.33 156.86 113.783 156.58C114.25 156.3 114.617 155.913 114.883 155.42C115.163 154.913 115.303 154.327 115.303 153.66ZM128.564 144.2C128.911 144.2 129.197 144.313 129.424 144.54C129.651 144.767 129.764 145.06 129.764 145.42V157.78C129.764 158.127 129.651 158.42 129.424 158.66C129.197 158.887 128.911 159 128.564 159C128.217 159 127.931 158.887 127.704 158.66C127.477 158.42 127.364 158.127 127.364 157.78V156.8L127.804 156.98C127.804 157.153 127.711 157.367 127.524 157.62C127.337 157.86 127.084 158.1 126.764 158.34C126.444 158.58 126.064 158.787 125.624 158.96C125.197 159.12 124.731 159.2 124.224 159.2C123.304 159.2 122.471 158.967 121.724 158.5C120.977 158.02 120.384 157.367 119.944 156.54C119.517 155.7 119.304 154.74 119.304 153.66C119.304 152.567 119.517 151.607 119.944 150.78C120.384 149.94 120.971 149.287 121.704 148.82C122.437 148.34 123.251 148.1 124.144 148.1C124.717 148.1 125.244 148.187 125.724 148.36C126.204 148.533 126.617 148.753 126.964 149.02C127.324 149.287 127.597 149.56 127.784 149.84C127.984 150.107 128.084 150.333 128.084 150.52L127.364 150.78V145.42C127.364 145.073 127.477 144.787 127.704 144.56C127.931 144.32 128.217 144.2 128.564 144.2ZM124.524 157C125.111 157 125.624 156.853 126.064 156.56C126.504 156.267 126.844 155.867 127.084 155.36C127.337 154.853 127.464 154.287 127.464 153.66C127.464 153.02 127.337 152.447 127.084 151.94C126.844 151.433 126.504 151.033 126.064 150.74C125.624 150.447 125.111 150.3 124.524 150.3C123.951 150.3 123.444 150.447 123.004 150.74C122.564 151.033 122.217 151.433 121.964 151.94C121.724 152.447 121.604 153.02 121.604 153.66C121.604 154.287 121.724 154.853 121.964 155.36C122.217 155.867 122.564 156.267 123.004 156.56C123.444 156.853 123.951 157 124.524 157ZM137.403 159.2C136.269 159.2 135.283 158.967 134.443 158.5C133.616 158.02 132.976 157.373 132.523 156.56C132.083 155.747 131.863 154.827 131.863 153.8C131.863 152.6 132.103 151.58 132.583 150.74C133.076 149.887 133.716 149.233 134.503 148.78C135.289 148.327 136.123 148.1 137.003 148.1C137.683 148.1 138.323 148.24 138.923 148.52C139.536 148.8 140.076 149.187 140.543 149.68C141.009 150.16 141.376 150.72 141.643 151.36C141.923 152 142.063 152.68 142.063 153.4C142.049 153.72 141.923 153.98 141.683 154.18C141.443 154.38 141.163 154.48 140.843 154.48H133.203L132.603 152.48H139.943L139.503 152.88V152.34C139.476 151.953 139.336 151.607 139.083 151.3C138.843 150.993 138.536 150.753 138.163 150.58C137.803 150.393 137.416 150.3 137.003 150.3C136.603 150.3 136.229 150.353 135.883 150.46C135.536 150.567 135.236 150.747 134.983 151C134.729 151.253 134.529 151.593 134.383 152.02C134.236 152.447 134.163 152.987 134.163 153.64C134.163 154.36 134.309 154.973 134.603 155.48C134.909 155.973 135.296 156.353 135.763 156.62C136.243 156.873 136.749 157 137.283 157C137.776 157 138.169 156.96 138.463 156.88C138.756 156.8 138.989 156.707 139.163 156.6C139.349 156.48 139.516 156.38 139.663 156.3C139.903 156.18 140.129 156.12 140.343 156.12C140.636 156.12 140.876 156.22 141.062 156.42C141.263 156.62 141.363 156.853 141.363 157.12C141.363 157.48 141.176 157.807 140.803 158.1C140.456 158.393 139.969 158.653 139.343 158.88C138.716 159.093 138.069 159.2 137.403 159.2ZM145.359 159C145.013 159 144.726 158.887 144.499 158.66C144.273 158.42 144.159 158.127 144.159 157.78V149.52C144.159 149.173 144.273 148.887 144.499 148.66C144.726 148.42 145.013 148.3 145.359 148.3C145.706 148.3 145.993 148.42 146.219 148.66C146.446 148.887 146.559 149.173 146.559 149.52V151.4L146.419 150.06C146.566 149.74 146.753 149.46 146.979 149.22C147.219 148.967 147.486 148.76 147.779 148.6C148.073 148.427 148.386 148.3 148.719 148.22C149.053 148.14 149.386 148.1 149.719 148.1C150.119 148.1 150.453 148.213 150.719 148.44C150.999 148.667 151.139 148.933 151.139 149.24C151.139 149.68 151.026 150 150.799 150.2C150.573 150.387 150.326 150.48 150.059 150.48C149.806 150.48 149.573 150.433 149.359 150.34C149.159 150.247 148.926 150.2 148.659 150.2C148.419 150.2 148.173 150.26 147.919 150.38C147.679 150.487 147.453 150.66 147.239 150.9C147.039 151.14 146.873 151.44 146.739 151.8C146.619 152.147 146.559 152.56 146.559 153.04V157.78C146.559 158.127 146.446 158.42 146.219 158.66C145.993 158.887 145.706 159 145.359 159ZM152.211 157.34C152.078 157.153 152.018 156.913 152.031 156.62C152.045 156.327 152.218 156.073 152.551 155.86C152.765 155.727 152.991 155.673 153.231 155.7C153.471 155.713 153.705 155.833 153.931 156.06C154.318 156.447 154.725 156.747 155.151 156.96C155.578 157.173 156.111 157.28 156.751 157.28C156.951 157.267 157.171 157.24 157.411 157.2C157.651 157.147 157.858 157.04 158.031 156.88C158.218 156.707 158.311 156.447 158.311 156.1C158.311 155.807 158.211 155.573 158.011 155.4C157.811 155.227 157.545 155.08 157.211 154.96C156.891 154.84 156.531 154.727 156.131 154.62C155.718 154.5 155.291 154.367 154.851 154.22C154.425 154.073 154.031 153.887 153.671 153.66C153.311 153.42 153.018 153.107 152.791 152.72C152.565 152.333 152.451 151.847 152.451 151.26C152.451 150.593 152.638 150.027 153.011 149.56C153.385 149.093 153.865 148.733 154.451 148.48C155.051 148.227 155.678 148.1 156.331 148.1C156.745 148.1 157.178 148.153 157.631 148.26C158.085 148.353 158.518 148.513 158.931 148.74C159.345 148.953 159.691 149.24 159.971 149.6C160.118 149.8 160.205 150.04 160.231 150.32C160.258 150.6 160.131 150.853 159.851 151.08C159.651 151.24 159.418 151.313 159.151 151.3C158.885 151.273 158.665 151.18 158.491 151.02C158.265 150.727 157.958 150.493 157.571 150.32C157.198 150.147 156.765 150.06 156.271 150.06C156.071 150.06 155.851 150.087 155.611 150.14C155.385 150.18 155.185 150.28 155.011 150.44C154.838 150.587 154.751 150.827 154.751 151.16C154.751 151.467 154.851 151.713 155.051 151.9C155.251 152.073 155.518 152.22 155.851 152.34C156.198 152.447 156.565 152.553 156.951 152.66C157.351 152.767 157.758 152.893 158.171 153.04C158.585 153.187 158.965 153.38 159.311 153.62C159.658 153.86 159.938 154.173 160.151 154.56C160.365 154.933 160.471 155.413 160.471 156C160.471 156.68 160.271 157.26 159.871 157.74C159.471 158.22 158.971 158.587 158.371 158.84C157.771 159.08 157.158 159.2 156.531 159.2C155.745 159.2 154.958 159.067 154.171 158.8C153.385 158.52 152.731 158.033 152.211 157.34Z"
          fill="#2B75FF"/>
</svg>
